Coordinates
version=1
nRows=13
nColumns=63
inDegrees=yes

Units are S.I. units (second, meters, Newtons, ...)
If the header above contains a line with 'inDegrees', this indicates whether rotational values are in degrees (yes) or radians (no).

endheader
time	pelvis_tilt	pelvis_list	pelvis_rotation	pelvis_tx	pelvis_ty	pelvis_tz	hip_flexion_r	hip_adduction_r	hip_rotation_r	knee_angle_r	knee_angle_r_beta	ankle_angle_r	subtalar_angle_r	mtp_angle_r	hip_flexion_l	hip_adduction_l	hip_rotation_l	knee_angle_l	knee_angle_l_beta	ankle_angle_l	subtalar_angle_l	mtp_angle_l	L5_S1_Flex_Ext	L5_S1_Lat_Bending	L5_S1_axial_rotation	L4_L5_Flex_Ext	L4_L5_Lat_Bending	L4_L5_axial_rotation	L3_L4_Flex_Ext	L3_L4_Lat_Bending	L3_L4_axial_rotation	L2_L3_Flex_Ext	L2_L3_Lat_Bending	L2_L3_axial_rotation	L1_L2_Flex_Ext	L1_L2_Lat_Bending	L1_L2_axial_rotation	L1_T12_Flex_Ext	L1_T12_Lat_Bending	L1_T12_axial_rotation	Abs_r3	Abs_r2	Abs_r1	Abs_t1	Abs_t2	neck_flexion	neck_bending	neck_rotation	arm_flex_r	arm_add_r	arm_rot_r	elbow_flex_r	pro_sup_r	wrist_flex_r	wrist_dev_r	arm_flex_l	arm_add_l	arm_rot_l	elbow_flex_l	pro_sup_l	wrist_flex_l	wrist_dev_l
5.203390	-0.365468	-0.883091	97.519361	0.157748	0.484096	1.047512	-2.794674	-1.665863	-21.109846	7.242121	0.126399	34.293888	15.822900	0.000000	1.195381	-0.311338	1.525855	10.530937	0.183800	32.709574	5.943957	0.000000	0.184370	-0.127446	-0.416240	0.342394	-0.169503	-0.442255	0.302902	-0.309873	-0.442255	0.210717	-0.309873	-0.364210	0.171206	-0.259888	-0.338195	0.105349	-0.197414	-0.312180	1.316937	-1.441696	-2.315001	0.000000	0.000000	20.101799	4.227485	-12.172198	13.428895	-6.814081	31.095257	43.282325	52.714035	-3.274350	23.996602	16.418201	-5.087618	44.677507	42.968651	56.063939	-3.328437	6.354283
5.220339	-0.402858	-0.916950	97.041835	0.158534	0.484040	1.047395	-2.675421	-1.747218	-20.639078	7.345391	0.128201	34.329184	15.872518	0.000000	1.154172	-0.277558	1.170833	10.510131	0.183436	32.725401	5.786853	0.000000	0.189750	-0.127491	-0.335457	0.352384	-0.169563	-0.356423	0.311740	-0.309981	-0.356423	0.216865	-0.309981	-0.293525	0.176202	-0.259979	-0.272559	0.108423	-0.197483	-0.251593	1.355364	-1.442202	-1.865710	0.000000	0.000000	20.110432	4.113734	-12.318596	13.458645	-6.824860	31.651685	42.891451	51.985063	-2.780936	23.907721	16.370904	-5.277393	45.217832	43.067410	54.516979	-3.171683	6.274755
5.237288	-0.432195	-0.939430	96.564261	0.159266	0.483991	1.047152	-2.581557	-1.817544	-20.167302	7.439196	0.129838	34.354558	15.923883	0.000000	1.087485	-0.257748	0.733284	10.489894	0.183083	32.781687	5.778787	0.000000	0.193564	-0.125102	-0.250387	0.359467	-0.166385	-0.266036	0.318005	-0.304172	-0.266036	0.221224	-0.304172	-0.219088	0.179743	-0.255108	-0.203439	0.110602	-0.193783	-0.187790	1.382605	-1.415176	-1.392575	0.000000	0.000000	20.147277	3.956670	-12.446761	13.411114	-6.859867	31.921764	42.608423	52.299665	-2.027493	23.928910	16.396539	-5.418353	45.896123	43.088660	52.918833	-3.154228	6.222289
5.254237	-0.465107	-0.957561	96.044070	0.159981	0.483950	1.046774	-2.499939	-1.894715	-19.671489	7.527055	0.131372	34.372836	15.990109	0.000000	0.989137	-0.234472	0.143906	10.442312	0.182253	32.878698	5.957300	0.000000	0.196562	-0.121531	-0.166187	0.365034	-0.161636	-0.176574	0.322931	-0.295491	-0.176574	0.224650	-0.295491	-0.145414	0.182527	-0.247826	-0.135027	0.112315	-0.188252	-0.124640	1.404019	-1.374784	-0.924284	0.000000	0.000000	20.220411	3.781690	-12.485183	13.364965	-6.927763	32.159777	42.379477	53.663154	-1.087001	23.832997	16.372476	-5.531463	46.327638	43.134756	51.616409	-3.338915	6.443659
5.271186	-0.499532	-0.970581	95.498307	0.160634	0.483935	1.046275	-2.437409	-1.975185	-19.148026	7.594907	0.132556	34.379760	16.037378	0.000000	0.849650	-0.200002	-0.427558	10.330902	0.180308	32.965896	6.128226	0.000000	0.198600	-0.115940	-0.085330	0.368821	-0.154200	-0.090663	0.326281	-0.281896	-0.090663	0.226980	-0.281896	-0.074664	0.184420	-0.236425	-0.069331	0.113480	-0.179591	-0.063998	1.418583	-1.311535	-0.474582	0.000000	0.000000	20.314335	3.579414	-12.407800	13.339379	-7.022513	32.408352	42.188399	56.010555	0.006857	23.573282	16.293839	-5.654274	46.554281	43.257672	50.403035	-3.791198	6.897424
5.288136	-0.532333	-0.975227	94.962181	0.161156	0.483974	1.045678	-2.401819	-2.057825	-18.680766	7.640154	0.133346	34.386716	16.120411	0.000000	0.657384	-0.141502	-0.725491	10.121017	0.176645	32.977119	6.005329	0.000000	0.199079	-0.107267	-0.012751	0.369709	-0.142665	-0.013548	0.327066	-0.260809	-0.013548	0.227527	-0.260809	-0.011157	0.184864	-0.218739	-0.010360	0.113754	-0.166157	-0.009563	1.421999	-1.213427	-0.070916	0.000000	0.000000	20.413921	3.350792	-12.167893	13.377423	-7.159792	32.844434	42.010230	59.049445	1.137659	23.083134	16.205298	-5.810999	46.849055	43.440681	48.699630	-4.326519	7.255401
5.305085	-0.557245	-0.977939	94.413082	0.161573	0.484073	1.045012	-2.381353	-2.135060	-18.210018	7.656935	0.133639	34.381991	16.192038	0.000000	0.428447	-0.071536	-0.864383	9.825095	0.171480	32.934189	5.711767	0.000000	0.198322	-0.094466	0.053992	0.368303	-0.125639	0.057367	0.325823	-0.229684	0.057367	0.226662	-0.229684	0.047243	0.184162	-0.192634	0.043869	0.113321	-0.146327	0.040494	1.416593	-1.068615	0.300288	0.000000	0.000000	20.521713	3.111244	-11.715203	13.524656	-7.320968	33.626147	41.816070	62.535146	2.222431	22.345798	16.085745	-5.964973	47.153206	43.604596	46.595998	-4.730316	7.221313
5.322034	-0.584348	-0.980725	93.851945	0.161900	0.484228	1.044310	-2.367491	-2.218605	-17.749488	7.654544	0.133597	34.373321	16.268672	0.000000	0.175438	0.021464	-0.844269	9.459279	0.165096	32.832293	5.230740	0.000000	0.196401	-0.079203	0.116273	0.364736	-0.105340	0.123540	0.322667	-0.192575	0.123540	0.224467	-0.192575	0.101739	0.182378	-0.161512	0.094472	0.112224	-0.122686	0.087205	1.402872	-0.895964	0.646675	0.000000	0.000000	20.627998	2.882174	-11.039688	13.794376	-7.451562	34.794632	41.568626	66.348851	3.186619	21.371774	15.959145	-6.076823	47.461376	43.627881	44.113005	-4.785314	6.655267
5.338983	-0.608919	-0.978563	93.269965	0.162205	0.484423	1.043594	-2.362415	-2.299810	-17.290489	7.630218	0.133172	34.365114	16.359032	0.000000	-0.094001	0.128046	-0.670388	9.047982	0.157917	32.684680	4.551370	0.000000	0.193284	-0.062229	0.175762	0.358947	-0.082765	0.186747	0.317545	-0.151304	0.186747	0.220904	-0.151304	0.153792	0.179483	-0.126897	0.142807	0.110442	-0.096393	0.131821	1.380605	-0.703947	0.977535	0.000000	0.000000	20.715046	2.695823	-10.158585	14.206141	-7.497087	36.392897	41.200494	70.443023	3.869312	20.103796	15.847839	-6.131790	47.772385	43.435363	41.329518	-4.497892	5.470423
5.355932	-0.647623	-0.965961	92.642158	0.162527	0.484622	1.042887	-2.359758	-2.398255	-16.803747	7.602807	0.132694	34.367170	16.449236	0.000000	-0.392371	0.268653	-0.314305	8.579131	0.149734	32.452812	3.573564	0.000000	0.188210	-0.046651	0.237830	0.349525	-0.062046	0.252694	0.309210	-0.113428	0.252694	0.215105	-0.113428	0.208101	0.174772	-0.095131	0.193237	0.107543	-0.072263	0.178373	1.344365	-0.527727	1.322740	0.000000	0.000000	20.792099	2.568273	-9.141447	14.824777	-7.523944	38.668236	40.672121	74.170920	4.181270	18.468560	15.779134	-6.133254	48.016862	42.953241	38.223612	-3.932254	3.624336
5.372881	-0.704622	-0.936854	91.961102	0.162938	0.484787	1.042143	-2.366772	-2.515831	-16.280641	7.574463	0.132199	34.383254	16.532567	0.000000	-0.730933	0.442260	0.231694	8.051715	0.140529	32.124583	2.264972	0.000000	0.181858	-0.035086	0.310647	0.337729	-0.046665	0.330062	0.298775	-0.085308	0.330062	0.207846	-0.085308	0.271816	0.168874	-0.071548	0.252401	0.103914	-0.054348	0.232985	1.298996	-0.396902	1.727725	0.000000	0.000000	20.846244	2.508709	-8.099585	15.564546	-7.473424	41.201500	40.013155	77.721282	4.166249	16.625153	15.823296	-6.054442	48.688015	42.042339	35.322180	-3.525035	1.142596
5.389831	-0.775918	-0.878100	91.304057	0.163414	0.484880	1.041310	-2.418083	-2.638238	-15.798917	7.523818	0.131315	34.409572	16.621239	0.000000	-1.115448	0.634143	0.988076	7.482676	0.130597	31.720988	0.700107	0.000000	0.173254	-0.028950	0.379655	0.321751	-0.038504	0.403383	0.284640	-0.070389	0.403383	0.198012	-0.070389	0.332198	0.160884	-0.059035	0.308470	0.098998	-0.044844	0.284741	1.237539	-0.327488	2.111527	0.000000	0.000000	20.903136	2.562943	-7.035856	16.381871	-7.323062	43.829855	39.252290	81.029004	3.650399	14.577432	15.921832	-6.056189	47.665151	40.965974	34.652584	-3.508277	-1.549712
5.406780	-0.847720	-0.780574	90.599798	0.164070	0.484915	1.040336	-2.517073	-2.749584	-15.210475	7.449678	0.130021	34.421061	16.610462	0.000000	-1.566034	0.816709	1.795999	6.870326	0.119910	31.241948	-1.029025	0.000000	0.162882	-0.028090	0.457021	0.302489	-0.037360	0.485585	0.267599	-0.068299	0.485585	0.186158	-0.068299	0.399894	0.151253	-0.057282	0.371330	0.093071	-0.043512	0.342766	1.163452	-0.317764	2.541816	0.000000	0.000000	20.893223	2.680467	-6.121379	17.308343	-7.097002	46.574219	38.322375	83.846413	2.699777	12.357197	16.208729	-5.887023	49.012750	39.218886	33.681149	-3.632487	-4.209770
